<svg width="304" height="80" viewBox="0 0 304 80" fill="none" xmlns="http://www.w3.org/2000/svg">
<rect width="304" height="80" rx="40" fill="#FF0000"/>
<path d="M119.408 61.2H109.008L107.024 66H101.712L111.696 43.6H116.816L126.832 66H121.392L119.408 61.2ZM117.776 57.264L114.224 48.688L110.672 57.264H117.776ZM139.08 48.528C140.68 48.528 142.131 48.9013 143.432 49.648C144.755 50.3733 145.789 51.408 146.536 52.752C147.283 54.0747 147.656 55.6213 147.656 57.392C147.656 59.1627 147.283 60.72 146.536 62.064C145.789 63.3867 144.755 64.4213 143.432 65.168C142.131 65.8933 140.68 66.256 139.08 66.256C136.883 66.256 135.155 65.5627 133.896 64.176V72.208H128.904V48.784H133.672V50.768C134.909 49.2747 136.712 48.528 139.08 48.528ZM138.216 62.16C139.496 62.16 140.541 61.7333 141.352 60.88C142.184 60.0053 142.6 58.8427 142.6 57.392C142.6 55.9413 142.184 54.7893 141.352 53.936C140.541 53.0613 139.496 52.624 138.216 52.624C136.936 52.624 135.88 53.0613 135.048 53.936C134.237 54.7893 133.832 55.9413 133.832 57.392C133.832 58.8427 134.237 60.0053 135.048 60.88C135.88 61.7333 136.936 62.16 138.216 62.16ZM161.274 48.528C162.874 48.528 164.324 48.9013 165.626 49.648C166.948 50.3733 167.983 51.408 168.73 52.752C169.476 54.0747 169.85 55.6213 169.85 57.392C169.85 59.1627 169.476 60.72 168.73 62.064C167.983 63.3867 166.948 64.4213 165.626 65.168C164.324 65.8933 162.874 66.256 161.274 66.256C159.076 66.256 157.348 65.5627 156.09 64.176V72.208H151.098V48.784H155.866V50.768C157.103 49.2747 158.906 48.528 161.274 48.528ZM160.41 62.16C161.69 62.16 162.735 61.7333 163.546 60.88C164.378 60.0053 164.794 58.8427 164.794 57.392C164.794 55.9413 164.378 54.7893 163.546 53.936C162.735 53.0613 161.69 52.624 160.41 52.624C159.13 52.624 158.074 53.0613 157.242 53.936C156.431 54.7893 156.026 55.9413 156.026 57.392C156.026 58.8427 156.431 60.0053 157.242 60.88C158.074 61.7333 159.13 62.16 160.41 62.16ZM190.166 66.384C188.395 66.384 186.678 66.1493 185.014 65.68C183.371 65.1893 182.049 64.56 181.046 63.792L182.806 59.888C183.766 60.592 184.907 61.1573 186.23 61.584C187.553 62.0107 188.875 62.224 190.198 62.224C191.67 62.224 192.758 62.0107 193.462 61.584C194.166 61.136 194.518 60.5493 194.518 59.824C194.518 59.2907 194.305 58.8533 193.878 58.512C193.473 58.1493 192.939 57.8613 192.278 57.648C191.638 57.4347 190.763 57.2 189.654 56.944C187.947 56.5387 186.55 56.1333 185.462 55.728C184.374 55.3227 183.435 54.672 182.646 53.776C181.878 52.88 181.494 51.6853 181.494 50.192C181.494 48.8907 181.846 47.7173 182.55 46.672C183.254 45.6053 184.31 44.7627 185.718 44.144C187.147 43.5253 188.886 43.216 190.934 43.216C192.363 43.216 193.761 43.3867 195.126 43.728C196.491 44.0693 197.686 44.56 198.71 45.2L197.11 49.136C195.041 47.9627 192.971 47.376 190.902 47.376C189.451 47.376 188.374 47.6107 187.67 48.08C186.987 48.5493 186.646 49.168 186.646 49.936C186.646 50.704 187.041 51.28 187.83 51.664C188.641 52.0267 189.867 52.3893 191.51 52.752C193.217 53.1573 194.614 53.5627 195.702 53.968C196.79 54.3733 197.718 55.0133 198.486 55.888C199.275 56.7627 199.67 57.9467 199.67 59.44C199.67 60.72 199.307 61.8933 198.582 62.96C197.878 64.0053 196.811 64.8373 195.382 65.456C193.953 66.0747 192.214 66.384 190.166 66.384ZM214.064 65.168C213.574 65.5307 212.966 65.808 212.24 66C211.536 66.1707 210.79 66.256 210 66.256C207.952 66.256 206.363 65.7333 205.232 64.688C204.123 63.6427 203.568 62.1067 203.568 60.08V53.008H200.912V49.168H203.568V44.976H208.56V49.168H212.848V53.008H208.56V60.016C208.56 60.7413 208.742 61.3067 209.104 61.712C209.488 62.096 210.022 62.288 210.704 62.288C211.494 62.288 212.166 62.0747 212.72 61.648L214.064 65.168ZM224.627 66.256C222.814 66.256 221.182 65.8827 219.731 65.136C218.302 64.368 217.182 63.312 216.371 61.968C215.561 60.624 215.155 59.0987 215.155 57.392C215.155 55.6853 215.561 54.16 216.371 52.816C217.182 51.472 218.302 50.4267 219.731 49.68C221.182 48.912 222.814 48.528 224.627 48.528C226.441 48.528 228.062 48.912 229.491 49.68C230.921 50.4267 232.041 51.472 232.851 52.816C233.662 54.16 234.067 55.6853 234.067 57.392C234.067 59.0987 233.662 60.624 232.851 61.968C232.041 63.312 230.921 64.368 229.491 65.136C228.062 65.8827 226.441 66.256 224.627 66.256ZM224.627 62.16C225.907 62.16 226.953 61.7333 227.763 60.88C228.595 60.0053 229.011 58.8427 229.011 57.392C229.011 55.9413 228.595 54.7893 227.763 53.936C226.953 53.0613 225.907 52.624 224.627 52.624C223.347 52.624 222.291 53.0613 221.459 53.936C220.627 54.7893 220.211 55.9413 220.211 57.392C220.211 58.8427 220.627 60.0053 221.459 60.88C222.291 61.7333 223.347 62.16 224.627 62.16ZM242.272 51.056C242.869 50.224 243.669 49.5947 244.672 49.168C245.696 48.7413 246.869 48.528 248.192 48.528V53.136C247.637 53.0933 247.264 53.072 247.072 53.072C245.643 53.072 244.523 53.4773 243.712 54.288C242.901 55.0773 242.496 56.272 242.496 57.872V66H237.504V48.784H242.272V51.056ZM267.968 57.456C267.968 57.52 267.936 57.968 267.872 58.8H254.848C255.083 59.8667 255.637 60.7093 256.512 61.328C257.387 61.9467 258.475 62.256 259.776 62.256C260.672 62.256 261.461 62.128 262.144 61.872C262.848 61.5947 263.499 61.168 264.096 60.592L266.752 63.472C265.131 65.328 262.763 66.256 259.648 66.256C257.707 66.256 255.989 65.8827 254.496 65.136C253.003 64.368 251.851 63.312 251.04 61.968C250.229 60.624 249.824 59.0987 249.824 57.392C249.824 55.7067 250.219 54.192 251.008 52.848C251.819 51.4827 252.917 50.4267 254.304 49.68C255.712 48.912 257.28 48.528 259.008 48.528C260.693 48.528 262.219 48.8907 263.584 49.616C264.949 50.3413 266.016 51.3867 266.784 52.752C267.573 54.096 267.968 55.664 267.968 57.456ZM259.04 52.304C257.909 52.304 256.96 52.624 256.192 53.264C255.424 53.904 254.955 54.7787 254.784 55.888H263.264C263.093 54.8 262.624 53.936 261.856 53.296C261.088 52.6347 260.149 52.304 259.04 52.304Z" fill="white"/>
<path d="M103.692 17.4H109.2C110.544 17.4 111.738 17.664 112.782 18.192C113.826 18.708 114.636 19.446 115.212 20.406C115.788 21.354 116.076 22.452 116.076 23.7C116.076 24.948 115.788 26.052 115.212 27.012C114.636 27.96 113.826 28.698 112.782 29.226C111.738 29.742 110.544 30 109.2 30H103.692V17.4ZM109.092 28.02C110.016 28.02 110.826 27.846 111.522 27.498C112.23 27.138 112.77 26.634 113.142 25.986C113.526 25.326 113.718 24.564 113.718 23.7C113.718 22.836 113.526 22.08 113.142 21.432C112.77 20.772 112.23 20.268 111.522 19.92C110.826 19.56 110.016 19.38 109.092 19.38H106.032V28.02H109.092ZM122.667 30.126C121.695 30.126 120.819 29.916 120.039 29.496C119.259 29.076 118.647 28.494 118.203 27.75C117.771 26.994 117.555 26.142 117.555 25.194C117.555 24.246 117.771 23.4 118.203 22.656C118.647 21.912 119.259 21.33 120.039 20.91C120.819 20.49 121.695 20.28 122.667 20.28C123.651 20.28 124.533 20.49 125.313 20.91C126.093 21.33 126.699 21.912 127.131 22.656C127.575 23.4 127.797 24.246 127.797 25.194C127.797 26.142 127.575 26.994 127.131 27.75C126.699 28.494 126.093 29.076 125.313 29.496C124.533 29.916 123.651 30.126 122.667 30.126ZM122.667 28.2C123.495 28.2 124.179 27.924 124.719 27.372C125.259 26.82 125.529 26.094 125.529 25.194C125.529 24.294 125.259 23.568 124.719 23.016C124.179 22.464 123.495 22.188 122.667 22.188C121.839 22.188 121.155 22.464 120.615 23.016C120.087 23.568 119.823 24.294 119.823 25.194C119.823 26.094 120.087 26.82 120.615 27.372C121.155 27.924 121.839 28.2 122.667 28.2ZM144.679 20.388L141.133 30H138.973L136.489 23.376L133.969 30H131.809L128.281 20.388H130.405L132.943 27.48L135.589 20.388H137.479L140.071 27.516L142.681 20.388H144.679ZM151.68 20.28C152.892 20.28 153.864 20.634 154.596 21.342C155.328 22.05 155.694 23.1 155.694 24.492V30H153.444V24.78C153.444 23.94 153.246 23.31 152.85 22.89C152.454 22.458 151.89 22.242 151.158 22.242C150.33 22.242 149.676 22.494 149.196 22.998C148.716 23.49 148.476 24.204 148.476 25.14V30H146.226V20.388H148.368V21.63C148.74 21.186 149.208 20.85 149.772 20.622C150.336 20.394 150.972 20.28 151.68 20.28ZM158.548 16.644H160.798V30H158.548V16.644ZM168.071 30.126C167.099 30.126 166.223 29.916 165.443 29.496C164.663 29.076 164.051 28.494 163.607 27.75C163.175 26.994 162.959 26.142 162.959 25.194C162.959 24.246 163.175 23.4 163.607 22.656C164.051 21.912 164.663 21.33 165.443 20.91C166.223 20.49 167.099 20.28 168.071 20.28C169.055 20.28 169.937 20.49 170.717 20.91C171.497 21.33 172.103 21.912 172.535 22.656C172.979 23.4 173.201 24.246 173.201 25.194C173.201 26.142 172.979 26.994 172.535 27.75C172.103 28.494 171.497 29.076 170.717 29.496C169.937 29.916 169.055 30.126 168.071 30.126ZM168.071 28.2C168.899 28.2 169.583 27.924 170.123 27.372C170.663 26.82 170.933 26.094 170.933 25.194C170.933 24.294 170.663 23.568 170.123 23.016C169.583 22.464 168.899 22.188 168.071 22.188C167.243 22.188 166.559 22.464 166.019 23.016C165.491 23.568 165.227 24.294 165.227 25.194C165.227 26.094 165.491 26.82 166.019 27.372C166.559 27.924 167.243 28.2 168.071 28.2ZM178.902 20.28C180.318 20.28 181.398 20.622 182.142 21.306C182.898 21.978 183.276 22.998 183.276 24.366V30H181.152V28.83C180.876 29.25 180.48 29.574 179.964 29.802C179.46 30.018 178.848 30.126 178.128 30.126C177.408 30.126 176.778 30.006 176.238 29.766C175.698 29.514 175.278 29.172 174.978 28.74C174.69 28.296 174.546 27.798 174.546 27.246C174.546 26.382 174.864 25.692 175.5 25.176C176.148 24.648 177.162 24.384 178.542 24.384H181.026V24.24C181.026 23.568 180.822 23.052 180.414 22.692C180.018 22.332 179.424 22.152 178.632 22.152C178.092 22.152 177.558 22.236 177.03 22.404C176.514 22.572 176.076 22.806 175.716 23.106L174.834 21.468C175.338 21.084 175.944 20.79 176.652 20.586C177.36 20.382 178.11 20.28 178.902 20.28ZM178.596 28.488C179.16 28.488 179.658 28.362 180.09 28.11C180.534 27.846 180.846 27.474 181.026 26.994V25.878H178.704C177.408 25.878 176.76 26.304 176.76 27.156C176.76 27.564 176.922 27.888 177.246 28.128C177.57 28.368 178.02 28.488 178.596 28.488ZM195.665 16.644V30H193.505V28.758C193.133 29.214 192.671 29.556 192.119 29.784C191.579 30.012 190.979 30.126 190.319 30.126C189.395 30.126 188.561 29.922 187.817 29.514C187.085 29.106 186.509 28.53 186.089 27.786C185.669 27.03 185.459 26.166 185.459 25.194C185.459 24.222 185.669 23.364 186.089 22.62C186.509 21.876 187.085 21.3 187.817 20.892C188.561 20.484 189.395 20.28 190.319 20.28C190.955 20.28 191.537 20.388 192.065 20.604C192.593 20.82 193.043 21.144 193.415 21.576V16.644H195.665ZM190.589 28.2C191.129 28.2 191.615 28.08 192.047 27.84C192.479 27.588 192.821 27.234 193.073 26.778C193.325 26.322 193.451 25.794 193.451 25.194C193.451 24.594 193.325 24.066 193.073 23.61C192.821 23.154 192.479 22.806 192.047 22.566C191.615 22.314 191.129 22.188 190.589 22.188C190.049 22.188 189.563 22.314 189.131 22.566C188.699 22.806 188.357 23.154 188.105 23.61C187.853 24.066 187.727 24.594 187.727 25.194C187.727 25.794 187.853 26.322 188.105 26.778C188.357 27.234 188.699 27.588 189.131 27.84C189.563 28.08 190.049 28.2 190.589 28.2ZM207.903 30.126C206.931 30.126 206.055 29.916 205.275 29.496C204.495 29.076 203.883 28.494 203.439 27.75C203.007 26.994 202.791 26.142 202.791 25.194C202.791 24.246 203.007 23.4 203.439 22.656C203.883 21.912 204.495 21.33 205.275 20.91C206.055 20.49 206.931 20.28 207.903 20.28C208.887 20.28 209.769 20.49 210.549 20.91C211.329 21.33 211.935 21.912 212.367 22.656C212.811 23.4 213.033 24.246 213.033 25.194C213.033 26.142 212.811 26.994 212.367 27.75C211.935 28.494 211.329 29.076 210.549 29.496C209.769 29.916 208.887 30.126 207.903 30.126ZM207.903 28.2C208.731 28.2 209.415 27.924 209.955 27.372C210.495 26.82 210.765 26.094 210.765 25.194C210.765 24.294 210.495 23.568 209.955 23.016C209.415 22.464 208.731 22.188 207.903 22.188C207.075 22.188 206.391 22.464 205.851 23.016C205.323 23.568 205.059 24.294 205.059 25.194C205.059 26.094 205.323 26.82 205.851 27.372C206.391 27.924 207.075 28.2 207.903 28.2ZM220.639 20.28C221.851 20.28 222.823 20.634 223.555 21.342C224.287 22.05 224.653 23.1 224.653 24.492V30H222.403V24.78C222.403 23.94 222.205 23.31 221.809 22.89C221.413 22.458 220.849 22.242 220.117 22.242C219.289 22.242 218.635 22.494 218.155 22.998C217.675 23.49 217.435 24.204 217.435 25.14V30H215.185V20.388H217.327V21.63C217.699 21.186 218.167 20.85 218.731 20.622C219.295 20.394 219.931 20.28 220.639 20.28ZM238.26 29.478C237.996 29.694 237.672 29.856 237.288 29.964C236.916 30.072 236.52 30.126 236.1 30.126C235.044 30.126 234.228 29.85 233.652 29.298C233.076 28.746 232.788 27.942 232.788 26.886V22.26H231.204V20.46H232.788V18.264H235.038V20.46H237.612V22.26H235.038V26.832C235.038 27.3 235.152 27.66 235.38 27.912C235.608 28.152 235.938 28.272 236.37 28.272C236.874 28.272 237.294 28.14 237.63 27.876L238.26 29.478ZM245.565 20.28C246.777 20.28 247.749 20.634 248.481 21.342C249.213 22.05 249.579 23.1 249.579 24.492V30H247.329V24.78C247.329 23.94 247.131 23.31 246.735 22.89C246.339 22.458 245.775 22.242 245.043 22.242C244.215 22.242 243.561 22.494 243.081 22.998C242.601 23.49 242.361 24.204 242.361 25.14V30H240.111V16.644H242.361V21.504C242.733 21.108 243.189 20.808 243.729 20.604C244.281 20.388 244.893 20.28 245.565 20.28ZM261.557 25.248C261.557 25.404 261.545 25.626 261.521 25.914H253.979C254.111 26.622 254.453 27.186 255.005 27.606C255.569 28.014 256.265 28.218 257.093 28.218C258.149 28.218 259.019 27.87 259.703 27.174L260.909 28.56C260.477 29.076 259.931 29.466 259.271 29.73C258.611 29.994 257.867 30.126 257.039 30.126C255.983 30.126 255.053 29.916 254.249 29.496C253.445 29.076 252.821 28.494 252.377 27.75C251.945 26.994 251.729 26.142 251.729 25.194C251.729 24.258 251.939 23.418 252.359 22.674C252.791 21.918 253.385 21.33 254.141 20.91C254.897 20.49 255.749 20.28 256.697 20.28C257.633 20.28 258.467 20.49 259.199 20.91C259.943 21.318 260.519 21.9 260.927 22.656C261.347 23.4 261.557 24.264 261.557 25.248ZM256.697 22.08C255.977 22.08 255.365 22.296 254.861 22.728C254.369 23.148 254.069 23.712 253.961 24.42H259.415C259.319 23.724 259.025 23.16 258.533 22.728C258.041 22.296 257.429 22.08 256.697 22.08Z" fill="white"/>
<path d="M54.0914 66C46.6499 65.9571 40.4944 50.7665 40.4944 43.0302C40.4944 30.3931 49.9744 27.6265 53.6279 27.6265C55.2744 27.6265 57.0325 28.2731 58.5832 28.8453C59.6675 29.2444 60.789 29.6564 61.4127 29.6564C61.7861 29.6564 62.6659 29.3059 63.4426 28.9984C65.0992 28.3389 67.1605 27.5193 69.5609 27.5193C69.5652 27.5193 69.5709 27.5193 69.5751 27.5193C71.3675 27.5193 76.8021 27.9126 80.0694 32.8193L80.8347 33.9694L79.7332 34.8005C78.1597 35.9878 75.2886 38.1537 75.2886 42.4438C75.2886 47.525 78.5402 49.4791 80.1023 50.4189C80.7918 50.8337 81.5056 51.2615 81.5056 52.197C81.5056 52.8079 76.6304 65.9242 69.5508 65.9242C67.8185 65.9242 66.594 65.4035 65.5139 64.9443C64.421 64.4793 63.4783 64.0789 61.9205 64.0789C61.1308 64.0789 60.1323 64.4522 59.0751 64.8485C57.6305 65.3876 55.9954 66 54.14 66H54.0914Z" fill="white"/>
<path d="M70.3109 16C70.4953 22.648 65.7409 27.2602 60.9921 26.9709C60.2095 21.6655 65.7403 16 70.3109 16Z" fill="white"/>
</svg>
