<svg width="304" height="80" viewBox="0 0 304 80" fill="none" xmlns="http://www.w3.org/2000/svg">
<rect x="0.5" y="0.5" width="303" height="79" rx="39.5" stroke="white"/>
<path d="M102.792 54.448H107.528V63.536C106.312 64.4533 104.904 65.1573 103.304 65.648C101.704 66.1387 100.093 66.384 98.472 66.384C96.1467 66.384 94.056 65.8933 92.2 64.912C90.344 63.9093 88.8827 62.5333 87.816 60.784C86.7707 59.0133 86.248 57.0187 86.248 54.8C86.248 52.5813 86.7707 50.5973 87.816 48.848C88.8827 47.0773 90.3547 45.7013 92.232 44.72C94.1093 43.7173 96.2213 43.216 98.568 43.216C100.531 43.216 102.312 43.5467 103.912 44.208C105.512 44.8693 106.856 45.8293 107.944 47.088L104.616 50.16C103.016 48.4747 101.085 47.632 98.824 47.632C97.3947 47.632 96.1253 47.9307 95.016 48.528C93.9067 49.1253 93.0427 49.968 92.424 51.056C91.8053 52.144 91.496 53.392 91.496 54.8C91.496 56.1867 91.8053 57.424 92.424 58.512C93.0427 59.6 93.896 60.4533 94.984 61.072C96.0933 61.6693 97.352 61.968 98.76 61.968C100.253 61.968 101.597 61.648 102.792 61.008V54.448ZM120.284 66.256C118.47 66.256 116.838 65.8827 115.388 65.136C113.958 64.368 112.838 63.312 112.028 61.968C111.217 60.624 110.812 59.0987 110.812 57.392C110.812 55.6853 111.217 54.16 112.028 52.816C112.838 51.472 113.958 50.4267 115.388 49.68C116.838 48.912 118.47 48.528 120.284 48.528C122.097 48.528 123.718 48.912 125.148 49.68C126.577 50.4267 127.697 51.472 128.508 52.816C129.318 54.16 129.724 55.6853 129.724 57.392C129.724 59.0987 129.318 60.624 128.508 61.968C127.697 63.312 126.577 64.368 125.148 65.136C123.718 65.8827 122.097 66.256 120.284 66.256ZM120.284 62.16C121.564 62.16 122.609 61.7333 123.42 60.88C124.252 60.0053 124.668 58.8427 124.668 57.392C124.668 55.9413 124.252 54.7893 123.42 53.936C122.609 53.0613 121.564 52.624 120.284 52.624C119.004 52.624 117.948 53.0613 117.116 53.936C116.284 54.7893 115.868 55.9413 115.868 57.392C115.868 58.8427 116.284 60.0053 117.116 60.88C117.948 61.7333 119.004 62.16 120.284 62.16ZM141.352 66.256C139.539 66.256 137.907 65.8827 136.456 65.136C135.027 64.368 133.907 63.312 133.096 61.968C132.286 60.624 131.88 59.0987 131.88 57.392C131.88 55.6853 132.286 54.16 133.096 52.816C133.907 51.472 135.027 50.4267 136.456 49.68C137.907 48.912 139.539 48.528 141.352 48.528C143.166 48.528 144.787 48.912 146.216 49.68C147.646 50.4267 148.766 51.472 149.576 52.816C150.387 54.16 150.792 55.6853 150.792 57.392C150.792 59.0987 150.387 60.624 149.576 61.968C148.766 63.312 147.646 64.368 146.216 65.136C144.787 65.8827 143.166 66.256 141.352 66.256ZM141.352 62.16C142.632 62.16 143.678 61.7333 144.488 60.88C145.32 60.0053 145.736 58.8427 145.736 57.392C145.736 55.9413 145.32 54.7893 144.488 53.936C143.678 53.0613 142.632 52.624 141.352 52.624C140.072 52.624 139.016 53.0613 138.184 53.936C137.352 54.7893 136.936 55.9413 136.936 57.392C136.936 58.8427 137.352 60.0053 138.184 60.88C139.016 61.7333 140.072 62.16 141.352 62.16ZM171.989 48.784V63.12C171.989 66.2773 171.168 68.624 169.525 70.16C167.882 71.696 165.482 72.464 162.325 72.464C160.661 72.464 159.082 72.2613 157.589 71.856C156.096 71.4507 154.858 70.864 153.877 70.096L155.861 66.512C156.586 67.1093 157.504 67.5787 158.613 67.92C159.722 68.2827 160.832 68.464 161.941 68.464C163.669 68.464 164.938 68.0693 165.749 67.28C166.581 66.512 166.997 65.3387 166.997 63.76V63.024C165.696 64.4533 163.882 65.168 161.557 65.168C159.978 65.168 158.528 64.8267 157.205 64.144C155.904 63.44 154.869 62.4587 154.101 61.2C153.333 59.9413 152.949 58.4907 152.949 56.848C152.949 55.2053 153.333 53.7547 154.101 52.496C154.869 51.2373 155.904 50.2667 157.205 49.584C158.528 48.88 159.978 48.528 161.557 48.528C164.053 48.528 165.952 49.3493 167.253 50.992V48.784H171.989ZM162.549 61.072C163.872 61.072 164.949 60.688 165.781 59.92C166.634 59.1307 167.061 58.1067 167.061 56.848C167.061 55.5893 166.634 54.576 165.781 53.808C164.949 53.0187 163.872 52.624 162.549 52.624C161.226 52.624 160.138 53.0187 159.285 53.808C158.432 54.576 158.005 55.5893 158.005 56.848C158.005 58.1067 158.432 59.1307 159.285 59.92C160.138 60.688 161.226 61.072 162.549 61.072ZM176.735 42.256H181.727V66H176.735V42.256ZM203.324 57.456C203.324 57.52 203.292 57.968 203.228 58.8H190.204C190.439 59.8667 190.994 60.7093 191.868 61.328C192.743 61.9467 193.831 62.256 195.132 62.256C196.028 62.256 196.818 62.128 197.5 61.872C198.204 61.5947 198.855 61.168 199.452 60.592L202.108 63.472C200.487 65.328 198.119 66.256 195.004 66.256C193.063 66.256 191.346 65.8827 189.852 65.136C188.359 64.368 187.207 63.312 186.396 61.968C185.586 60.624 185.18 59.0987 185.18 57.392C185.18 55.7067 185.575 54.192 186.364 52.848C187.175 51.4827 188.274 50.4267 189.66 49.68C191.068 48.912 192.636 48.528 194.364 48.528C196.05 48.528 197.575 48.8907 198.94 49.616C200.306 50.3413 201.372 51.3867 202.14 52.752C202.93 54.096 203.324 55.664 203.324 57.456ZM194.396 52.304C193.266 52.304 192.316 52.624 191.548 53.264C190.78 53.904 190.311 54.7787 190.14 55.888H198.62C198.45 54.8 197.98 53.936 197.212 53.296C196.444 52.6347 195.506 52.304 194.396 52.304ZM225.958 43.6C227.942 43.6 229.66 43.9307 231.11 44.592C232.582 45.2533 233.713 46.192 234.502 47.408C235.292 48.624 235.686 50.064 235.686 51.728C235.686 53.3707 235.292 54.8107 234.502 56.048C233.713 57.264 232.582 58.2027 231.11 58.864C229.66 59.504 227.942 59.824 225.958 59.824H221.446V66H216.262V43.6H225.958ZM225.67 55.6C227.228 55.6 228.412 55.2693 229.222 54.608C230.033 53.9253 230.438 52.9653 230.438 51.728C230.438 50.4693 230.033 49.5093 229.222 48.848C228.412 48.1653 227.228 47.824 225.67 47.824H221.446V55.6H225.67ZM239.448 42.256H244.44V66H239.448V42.256ZM256.117 48.528C258.783 48.528 260.831 49.168 262.261 50.448C263.69 51.7067 264.405 53.616 264.405 56.176V66H259.733V63.856C258.794 65.456 257.045 66.256 254.485 66.256C253.162 66.256 252.01 66.032 251.029 65.584C250.069 65.136 249.333 64.5173 248.821 63.728C248.309 62.9387 248.053 62.0427 248.053 61.04C248.053 59.44 248.65 58.1813 249.845 57.264C251.061 56.3467 252.927 55.888 255.445 55.888H259.413C259.413 54.8 259.082 53.968 258.421 53.392C257.759 52.7947 256.767 52.496 255.445 52.496C254.527 52.496 253.621 52.6453 252.725 52.944C251.85 53.2213 251.103 53.6053 250.485 54.096L248.693 50.608C249.631 49.9467 250.751 49.4347 252.053 49.072C253.375 48.7093 254.73 48.528 256.117 48.528ZM255.733 62.896C256.586 62.896 257.343 62.704 258.005 62.32C258.666 61.9147 259.135 61.328 259.413 60.56V58.8H255.989C253.941 58.8 252.917 59.472 252.917 60.816C252.917 61.456 253.162 61.968 253.653 62.352C254.165 62.7147 254.858 62.896 255.733 62.896ZM285.798 48.784L278.022 67.056C277.233 69.04 276.252 70.4373 275.078 71.248C273.926 72.0587 272.529 72.464 270.886 72.464C269.99 72.464 269.105 72.3253 268.23 72.048C267.356 71.7707 266.641 71.3867 266.086 70.896L267.91 67.344C268.294 67.6853 268.732 67.952 269.222 68.144C269.734 68.336 270.236 68.432 270.726 68.432C271.409 68.432 271.964 68.2613 272.39 67.92C272.817 67.6 273.201 67.056 273.542 66.288L273.606 66.128L266.15 48.784H271.302L276.134 60.464L280.998 48.784H285.798Z" fill="white"/>
<path d="M94.864 27.084H88.564L87.322 30H84.91L90.58 17.4H92.884L98.572 30H96.124L94.864 27.084ZM94.09 25.248L91.714 19.74L89.356 25.248H94.09ZM105.412 20.28C106.624 20.28 107.596 20.634 108.328 21.342C109.06 22.05 109.426 23.1 109.426 24.492V30H107.176V24.78C107.176 23.94 106.978 23.31 106.582 22.89C106.186 22.458 105.622 22.242 104.89 22.242C104.062 22.242 103.408 22.494 102.928 22.998C102.448 23.49 102.208 24.204 102.208 25.14V30H99.9584V20.388H102.1V21.63C102.472 21.186 102.94 20.85 103.504 20.622C104.068 20.394 104.704 20.28 105.412 20.28ZM121.783 16.644V30H119.623V28.758C119.251 29.214 118.789 29.556 118.237 29.784C117.697 30.012 117.097 30.126 116.437 30.126C115.513 30.126 114.679 29.922 113.935 29.514C113.203 29.106 112.627 28.53 112.207 27.786C111.787 27.03 111.577 26.166 111.577 25.194C111.577 24.222 111.787 23.364 112.207 22.62C112.627 21.876 113.203 21.3 113.935 20.892C114.679 20.484 115.513 20.28 116.437 20.28C117.073 20.28 117.655 20.388 118.183 20.604C118.711 20.82 119.161 21.144 119.533 21.576V16.644H121.783ZM116.707 28.2C117.247 28.2 117.733 28.08 118.165 27.84C118.597 27.588 118.939 27.234 119.191 26.778C119.443 26.322 119.569 25.794 119.569 25.194C119.569 24.594 119.443 24.066 119.191 23.61C118.939 23.154 118.597 22.806 118.165 22.566C117.733 22.314 117.247 22.188 116.707 22.188C116.167 22.188 115.681 22.314 115.249 22.566C114.817 22.806 114.475 23.154 114.223 23.61C113.971 24.066 113.845 24.594 113.845 25.194C113.845 25.794 113.971 26.322 114.223 26.778C114.475 27.234 114.817 27.588 115.249 27.84C115.681 28.08 116.167 28.2 116.707 28.2ZM126.868 21.792C127.516 20.784 128.656 20.28 130.288 20.28V22.422C130.096 22.386 129.922 22.368 129.766 22.368C128.89 22.368 128.206 22.626 127.714 23.142C127.222 23.646 126.976 24.378 126.976 25.338V30H124.726V20.388H126.868V21.792ZM132.197 20.388H134.447V30H132.197V20.388ZM133.331 18.804C132.923 18.804 132.581 18.678 132.305 18.426C132.029 18.162 131.891 17.838 131.891 17.454C131.891 17.07 132.029 16.752 132.305 16.5C132.581 16.236 132.923 16.104 133.331 16.104C133.739 16.104 134.081 16.23 134.357 16.482C134.633 16.722 134.771 17.028 134.771 17.4C134.771 17.796 134.633 18.132 134.357 18.408C134.093 18.672 133.751 18.804 133.331 18.804ZM141.72 30.126C140.748 30.126 139.872 29.916 139.092 29.496C138.312 29.076 137.7 28.494 137.256 27.75C136.824 26.994 136.608 26.142 136.608 25.194C136.608 24.246 136.824 23.4 137.256 22.656C137.7 21.912 138.312 21.33 139.092 20.91C139.872 20.49 140.748 20.28 141.72 20.28C142.704 20.28 143.586 20.49 144.366 20.91C145.146 21.33 145.752 21.912 146.184 22.656C146.628 23.4 146.85 24.246 146.85 25.194C146.85 26.142 146.628 26.994 146.184 27.75C145.752 28.494 145.146 29.076 144.366 29.496C143.586 29.916 142.704 30.126 141.72 30.126ZM141.72 28.2C142.548 28.2 143.232 27.924 143.772 27.372C144.312 26.82 144.582 26.094 144.582 25.194C144.582 24.294 144.312 23.568 143.772 23.016C143.232 22.464 142.548 22.188 141.72 22.188C140.892 22.188 140.208 22.464 139.668 23.016C139.14 23.568 138.876 24.294 138.876 25.194C138.876 26.094 139.14 26.82 139.668 27.372C140.208 27.924 140.892 28.2 141.72 28.2ZM158.415 16.644V30H156.255V28.758C155.883 29.214 155.421 29.556 154.869 29.784C154.329 30.012 153.729 30.126 153.069 30.126C152.145 30.126 151.311 29.922 150.567 29.514C149.835 29.106 149.259 28.53 148.839 27.786C148.419 27.03 148.209 26.166 148.209 25.194C148.209 24.222 148.419 23.364 148.839 22.62C149.259 21.876 149.835 21.3 150.567 20.892C151.311 20.484 152.145 20.28 153.069 20.28C153.705 20.28 154.287 20.388 154.815 20.604C155.343 20.82 155.793 21.144 156.165 21.576V16.644H158.415ZM153.339 28.2C153.879 28.2 154.365 28.08 154.797 27.84C155.229 27.588 155.571 27.234 155.823 26.778C156.075 26.322 156.201 25.794 156.201 25.194C156.201 24.594 156.075 24.066 155.823 23.61C155.571 23.154 155.229 22.806 154.797 22.566C154.365 22.314 153.879 22.188 153.339 22.188C152.799 22.188 152.313 22.314 151.881 22.566C151.449 22.806 151.107 23.154 150.855 23.61C150.603 24.066 150.477 24.594 150.477 25.194C150.477 25.794 150.603 26.322 150.855 26.778C151.107 27.234 151.449 27.588 151.881 27.84C152.313 28.08 152.799 28.2 153.339 28.2ZM174.721 27.084H168.421L167.179 30H164.767L170.437 17.4H172.741L178.429 30H175.981L174.721 27.084ZM173.947 25.248L171.571 19.74L169.213 25.248H173.947ZM185.144 20.28C186.08 20.28 186.914 20.484 187.646 20.892C188.39 21.3 188.972 21.876 189.392 22.62C189.812 23.364 190.022 24.222 190.022 25.194C190.022 26.166 189.812 27.03 189.392 27.786C188.972 28.53 188.39 29.106 187.646 29.514C186.914 29.922 186.08 30.126 185.144 30.126C183.848 30.126 182.822 29.694 182.066 28.83V33.492H179.816V20.388H181.958V21.648C182.33 21.192 182.786 20.85 183.326 20.622C183.878 20.394 184.484 20.28 185.144 20.28ZM184.892 28.2C185.72 28.2 186.398 27.924 186.926 27.372C187.466 26.82 187.736 26.094 187.736 25.194C187.736 24.294 187.466 23.568 186.926 23.016C186.398 22.464 185.72 22.188 184.892 22.188C184.352 22.188 183.866 22.314 183.434 22.566C183.002 22.806 182.66 23.154 182.408 23.61C182.156 24.066 182.03 24.594 182.03 25.194C182.03 25.794 182.156 26.322 182.408 26.778C182.66 27.234 183.002 27.588 183.434 27.84C183.866 28.08 184.352 28.2 184.892 28.2ZM197.484 20.28C198.42 20.28 199.254 20.484 199.986 20.892C200.73 21.3 201.312 21.876 201.732 22.62C202.152 23.364 202.362 24.222 202.362 25.194C202.362 26.166 202.152 27.03 201.732 27.786C201.312 28.53 200.73 29.106 199.986 29.514C199.254 29.922 198.42 30.126 197.484 30.126C196.188 30.126 195.162 29.694 194.406 28.83V33.492H192.156V20.388H194.298V21.648C194.67 21.192 195.126 20.85 195.666 20.622C196.218 20.394 196.824 20.28 197.484 20.28ZM197.232 28.2C198.06 28.2 198.738 27.924 199.266 27.372C199.806 26.82 200.076 26.094 200.076 25.194C200.076 24.294 199.806 23.568 199.266 23.016C198.738 22.464 198.06 22.188 197.232 22.188C196.692 22.188 196.206 22.314 195.774 22.566C195.342 22.806 195 23.154 194.748 23.61C194.496 24.066 194.37 24.594 194.37 25.194C194.37 25.794 194.496 26.322 194.748 26.778C195 27.234 195.342 27.588 195.774 27.84C196.206 28.08 196.692 28.2 197.232 28.2ZM215.572 30.18C214.288 30.18 213.13 29.904 212.098 29.352C211.066 28.788 210.256 28.014 209.668 27.03C209.08 26.034 208.786 24.924 208.786 23.7C208.786 22.476 209.08 21.372 209.668 20.388C210.256 19.392 211.066 18.618 212.098 18.066C213.13 17.502 214.288 17.22 215.572 17.22C216.856 17.22 218.014 17.502 219.046 18.066C220.078 18.618 220.888 19.386 221.476 20.37C222.064 21.354 222.358 22.464 222.358 23.7C222.358 24.936 222.064 26.046 221.476 27.03C220.888 28.014 220.078 28.788 219.046 29.352C218.014 29.904 216.856 30.18 215.572 30.18ZM215.572 28.128C216.412 28.128 217.168 27.942 217.84 27.57C218.512 27.186 219.04 26.658 219.424 25.986C219.808 25.302 220 24.54 220 23.7C220 22.86 219.808 22.104 219.424 21.432C219.04 20.748 218.512 20.22 217.84 19.848C217.168 19.464 216.412 19.272 215.572 19.272C214.732 19.272 213.976 19.464 213.304 19.848C212.632 20.22 212.104 20.748 211.72 21.432C211.336 22.104 211.144 22.86 211.144 23.7C211.144 24.54 211.336 25.302 211.72 25.986C212.104 26.658 212.632 27.186 213.304 27.57C213.976 27.942 214.732 28.128 215.572 28.128ZM230.076 20.28C231.288 20.28 232.26 20.634 232.992 21.342C233.724 22.05 234.09 23.1 234.09 24.492V30H231.84V24.78C231.84 23.94 231.642 23.31 231.246 22.89C230.85 22.458 230.286 22.242 229.554 22.242C228.726 22.242 228.072 22.494 227.592 22.998C227.112 23.49 226.872 24.204 226.872 25.14V30H224.622V20.388H226.764V21.63C227.136 21.186 227.604 20.85 228.168 20.622C228.732 20.394 229.368 20.28 230.076 20.28Z" fill="white"/>
<g clip-path="url(#clip0_42_478)">
<path d="M56.7685 41.0045L31.6597 65.1826C30.4839 64.379 29.7858 63.0424 29.7981 61.6183V20.3907C29.7858 18.9666 30.4839 17.63 31.6597 16.8264L56.7685 41.0045Z" fill="#2196F3"/>
<path d="M65.5543 32.5591L56.7685 41.0044L31.6597 16.8263C31.7543 16.753 31.8528 16.6848 31.9548 16.622C33.2818 15.8177 34.9394 15.7917 36.291 16.5539L65.5543 32.5591Z" fill="#4CAF50"/>
<path d="M76.2018 41.0044C76.2182 42.612 75.3446 44.097 73.9316 44.8638L65.5544 49.4497L56.7686 41.0044L65.5544 32.5591L73.9316 37.1449C75.3446 37.9118 76.2182 39.3967 76.2018 41.0044Z" fill="#FFC107"/>
<path d="M65.5543 49.4497L36.291 65.4549C34.9364 66.2053 33.2851 66.1793 31.9548 65.3868C31.8528 65.324 31.7543 65.2558 31.6597 65.1825L56.7686 41.0044L65.5543 49.4497Z" fill="#F44336"/>
</g>
<defs>
<clipPath id="clip0_42_478">
<rect width="50" height="50" fill="white" transform="translate(28 16)"/>
</clipPath>
</defs>
</svg>
